<svg width="798" height="321" viewBox="0 0 798 321" fill="none" xmlns="http://www.w3.org/2000/svg">
<g clip-path="url(#clip0_138_4402)">
<rect width="797.419" height="320" transform="translate(0 0.166016)" fill="#D44527"/>
<path d="M575.428 96.0102C575.93 96.2418 576.524 96.0231 576.756 95.5218L580.53 87.3514C580.762 86.8501 580.543 86.2559 580.042 86.0243C579.54 85.7926 578.946 86.0113 578.714 86.5127L575.359 93.7752L568.097 90.4202C567.596 90.1886 567.001 90.4072 566.77 90.9086C566.538 91.41 566.757 92.0042 567.258 92.2358L575.428 96.0102ZM576.786 94.757C576.203 93.1708 575.598 91.5928 574.972 90.0232L573.114 90.7636C573.733 92.3167 574.332 93.8782 574.909 95.4477L576.786 94.757ZM571.81 82.5543C570.427 79.4708 568.962 76.4243 567.416 73.4183L565.637 74.3327C567.167 77.3073 568.617 80.3219 569.986 83.373L571.81 82.5543ZM563.555 66.2856C561.884 63.3498 560.135 60.4572 558.308 57.6112L556.625 58.6916C558.433 61.5076 560.164 64.3699 561.817 67.2749L563.555 66.2856ZM553.782 50.8803C551.839 48.1193 549.821 45.4075 547.728 42.7484L546.157 43.9851C548.227 46.6162 550.224 49.2995 552.147 52.0314L553.782 50.8803ZM542.578 36.4833C540.38 33.9232 538.11 31.418 535.77 28.9712L534.324 30.3535C536.64 32.7745 538.886 35.2531 541.061 37.7862L542.578 36.4833ZM530.038 23.2306C527.605 20.896 525.104 18.6216 522.536 16.4108L521.231 17.9264C523.772 20.1137 526.246 22.3639 528.654 24.6738L530.038 23.2306ZM516.278 11.2527C513.632 9.16628 510.923 7.14478 508.151 5.19146L506.999 6.8263C509.741 8.75885 512.422 10.7589 515.04 12.8231L516.278 11.2527ZM501.421 0.66254C498.588 -1.15642 495.696 -2.9064 492.746 -4.58427L491.757 -2.84573C494.676 -1.18561 497.538 0.545828 500.341 2.34548L501.421 0.66254ZM485.612 -8.44104C482.621 -9.97677 479.574 -11.4403 476.474 -12.8287L475.656 -11.0034C478.724 -9.62952 481.739 -8.18133 484.699 -6.66179L485.612 -8.44104ZM469.001 -15.9873C467.435 -16.6104 465.857 -17.2147 464.266 -17.8L463.575 -15.923C465.15 -15.3438 466.712 -14.7457 468.261 -14.129L469.001 -15.9873ZM464.266 -17.8C462.639 -18.3986 461.008 -18.9735 459.376 -19.5249L458.736 -17.63C460.352 -17.0844 461.965 -16.5154 463.575 -15.923L464.266 -17.8ZM451.484 -22.0023C448.155 -22.9686 444.819 -23.8392 441.477 -24.6154L441.025 -22.6673C444.331 -21.8993 447.632 -21.0378 450.926 -20.0816L451.484 -22.0023ZM433.381 -26.3111C429.977 -26.9466 426.571 -27.4858 423.166 -27.9302L422.907 -25.947C426.276 -25.5073 429.646 -24.9739 433.014 -24.3451L433.381 -26.3111ZM414.941 -28.8202C411.494 -29.1168 408.051 -29.3172 404.615 -29.4232L404.554 -27.4242C407.953 -27.3193 411.359 -27.121 414.769 -26.8276L414.941 -28.8202ZM396.342 -29.4965C392.886 -29.4511 389.44 -29.3107 386.008 -29.0769L386.144 -27.0815C389.54 -27.3129 392.949 -27.4518 396.369 -27.4967L396.342 -29.4965ZM377.768 -28.3337C374.335 -27.9482 370.92 -27.4692 367.525 -26.8986L367.857 -24.9262C371.216 -25.4909 374.595 -25.9648 377.991 -26.3462L377.768 -28.3337ZM359.398 -25.3492C356.022 -24.629 352.67 -23.8176 349.346 -22.9167L349.869 -20.9863C353.158 -21.8778 356.475 -22.6807 359.815 -23.3932L359.398 -25.3492ZM341.409 -20.5795C338.122 -19.5333 334.865 -18.3985 331.643 -17.1768L332.352 -15.3067C335.54 -16.5156 338.763 -17.6385 342.015 -18.6737L341.409 -20.5795ZM323.972 -14.0766C320.804 -12.7156 317.673 -11.269 314.584 -9.73839L315.472 -7.94626C318.529 -9.46082 321.626 -10.8923 324.761 -12.239L323.972 -14.0766ZM307.251 -5.90553C304.233 -4.24321 301.258 -2.49846 298.331 -0.673006L299.389 1.02402C302.285 -0.782268 305.229 -2.50871 308.216 -4.15359L307.251 -5.90553ZM291.407 3.8568C288.566 5.80481 285.776 7.83171 283.04 9.9358L284.259 11.5212C286.967 9.4393 289.727 7.43374 292.538 5.50622L291.407 3.8568ZM276.593 15.1213C273.958 17.3369 271.38 19.6276 268.862 21.9917L270.231 23.4498C272.722 21.1107 275.273 18.8442 277.88 16.6521L276.593 15.1213ZM262.956 27.7856C260.553 30.248 258.213 32.7814 255.939 35.3842L257.445 36.7002C259.695 34.1251 262.011 31.6186 264.387 29.1823L262.956 27.7856ZM250.633 41.7322C248.487 44.4175 246.409 47.1695 244.401 49.9867L246.029 51.1475C248.016 48.3603 250.072 45.6375 252.196 42.9808L250.633 41.7322ZM239.748 56.8273C237.88 59.7087 236.083 62.6522 234.361 65.6563L236.096 66.6509C237.8 63.6786 239.578 60.7663 241.426 57.9155L239.748 56.8273ZM230.405 72.9214C228.831 75.9692 227.332 79.0743 225.911 82.2354L227.735 83.0555C229.141 79.9275 230.624 76.8549 232.182 73.8393L230.405 72.9214ZM222.683 89.8515C222.044 91.4522 221.426 93.0662 220.827 94.6932L222.704 95.3838C223.297 93.7735 223.909 92.1762 224.54 90.5922L222.683 89.8515ZM220.827 94.6932C220.229 96.3203 219.654 97.9503 219.102 99.583L220.997 100.223C221.543 98.6072 222.112 96.994 222.704 95.3838L220.827 94.6932ZM216.625 107.475C215.659 110.804 214.788 114.14 214.012 117.481L215.96 117.934C216.728 114.628 217.59 111.326 218.546 108.033L216.625 107.475ZM212.316 125.578C211.681 128.982 211.142 132.388 210.697 135.793L212.68 136.052C213.12 132.683 213.653 129.313 214.282 125.945L212.316 125.578ZM209.807 144.018C209.511 147.465 209.31 150.908 209.204 154.344L211.203 154.405C211.308 151.006 211.506 147.6 211.8 144.189L209.807 144.018ZM209.131 162.617C209.176 166.073 209.317 169.519 209.55 172.951L211.546 172.815C211.314 169.419 211.176 166.01 211.131 162.59L209.131 162.617ZM210.294 181.191C210.679 184.623 211.158 188.039 211.729 191.434L213.701 191.102C213.136 187.743 212.663 184.364 212.281 180.968L210.294 181.191ZM213.278 199.561C213.998 202.937 214.81 206.289 215.711 209.613L217.641 209.09C216.75 205.8 215.947 202.484 215.234 199.144L213.278 199.561ZM218.048 217.55C219.094 220.837 220.229 224.094 221.45 227.316L223.321 226.607C222.112 223.419 220.989 220.196 219.954 216.943L218.048 217.55ZM224.551 234.987C225.912 238.155 227.358 241.286 228.889 244.375L230.681 243.487C229.167 240.43 227.735 237.332 226.388 234.198L224.551 234.987ZM232.722 251.708C234.384 254.726 236.129 257.701 237.954 260.628L239.651 259.57C237.845 256.673 236.119 253.73 234.474 250.743L232.722 251.708ZM242.484 267.552C244.432 270.392 246.459 273.183 248.563 275.919L250.149 274.7C248.067 271.992 246.061 269.231 244.134 266.421L242.484 267.552ZM253.749 282.366C255.964 285.001 258.255 287.579 260.619 290.097L262.077 288.728C259.738 286.236 257.472 283.685 255.279 281.079L253.749 282.366ZM266.413 296.003C268.875 298.405 271.409 300.746 274.012 303.02L275.328 301.514C272.752 299.264 270.246 296.948 267.81 294.571L266.413 296.003ZM280.36 308.326C283.045 310.472 285.797 312.55 288.614 314.558L289.775 312.929C286.988 310.943 284.265 308.886 281.608 306.763L280.36 308.326ZM295.455 319.211C298.336 321.079 301.28 322.876 304.284 324.598L305.278 322.863C302.306 321.159 299.394 319.381 296.543 317.533L295.455 319.211ZM311.549 328.554C314.597 330.128 317.702 331.627 320.863 333.048L321.683 331.224C318.555 329.818 315.482 328.334 312.467 326.777L311.549 328.554ZM328.479 336.276C330.08 336.914 331.694 337.533 333.321 338.132L334.011 336.255C332.401 335.662 330.804 335.05 329.22 334.418L328.479 336.276ZM333.321 338.132C334.948 338.73 336.578 339.305 338.21 339.856L338.85 337.961C337.235 337.416 335.621 336.847 334.011 336.255L333.321 338.132ZM346.103 342.334C349.431 343.3 352.767 344.171 356.109 344.947L356.561 342.999C353.255 342.231 349.954 341.369 346.66 340.413L346.103 342.334ZM364.205 346.643C367.609 347.278 371.015 347.817 374.421 348.262L374.679 346.278C371.31 345.839 367.94 345.305 364.572 344.677L364.205 346.643ZM382.645 349.152C386.092 349.448 389.535 349.649 392.971 349.755L393.033 347.756C389.633 347.651 386.227 347.452 382.817 347.159L382.645 349.152ZM401.244 349.828C404.7 349.783 408.146 349.642 411.578 349.408L411.442 347.413C408.047 347.644 404.637 347.783 401.218 347.828L401.244 349.828ZM419.819 348.665C423.251 348.28 426.666 347.801 430.061 347.23L429.729 345.258C426.371 345.822 422.991 346.296 419.595 346.678L419.819 348.665ZM438.188 345.681C441.564 344.961 444.916 344.149 448.241 343.248L447.717 341.318C444.428 342.209 441.111 343.012 437.771 343.725L438.188 345.681ZM456.177 340.911C459.464 339.865 462.721 338.73 465.943 337.508L465.234 335.638C462.046 336.847 458.823 337.97 455.571 339.005L456.177 340.911ZM473.614 334.408C476.782 333.047 479.913 331.6 483.002 330.07L482.115 328.278C479.057 329.792 475.96 331.224 472.825 332.571L473.614 334.408ZM490.335 326.237C493.354 324.575 496.328 322.83 499.255 321.005L498.197 319.307C495.301 321.114 492.357 322.84 489.37 324.485L490.335 326.237ZM506.179 316.475C509.02 314.527 511.81 312.5 514.546 310.396L513.327 308.81C510.62 310.892 507.859 312.898 505.048 314.825L506.179 316.475ZM520.993 305.21C523.628 302.995 526.206 300.704 528.724 298.34L527.355 296.882C524.864 299.221 522.313 301.487 519.706 303.679L520.993 305.21ZM534.63 292.546C537.033 290.084 539.373 287.55 541.647 284.947L540.141 283.631C537.891 286.206 535.576 288.713 533.199 291.149L534.63 292.546ZM546.953 278.599C549.099 275.914 551.178 273.162 553.185 270.345L551.557 269.184C549.57 271.971 547.514 274.694 545.391 277.351L546.953 278.599ZM557.838 263.504C559.706 260.623 561.503 257.679 563.225 254.675L561.49 253.681C559.786 256.653 558.008 259.565 556.16 262.416L557.838 263.504ZM567.181 247.41C568.755 244.362 570.254 241.257 571.676 238.096L569.851 237.276C568.445 240.404 566.962 243.477 565.404 246.492L567.181 247.41ZM574.904 230.48C575.542 228.879 576.16 227.265 576.759 225.638L574.882 224.948C574.289 226.558 573.677 228.155 573.046 229.739L574.904 230.48ZM575.009 96.918C576.012 97.3812 577.2 96.9439 577.663 95.9411L585.212 79.6005C585.676 78.5978 585.238 77.4094 584.235 76.9461C583.233 76.4829 582.044 76.9203 581.581 77.923L574.871 92.448L560.346 85.738C559.343 85.2747 558.155 85.7121 557.692 86.7148C557.228 87.7176 557.666 88.906 558.668 89.3692L575.009 96.918ZM577.725 94.4116C577.138 92.8172 576.53 91.2308 575.901 89.653L572.186 91.1338C572.801 92.6787 573.396 94.2319 573.971 95.7931L577.725 94.4116ZM572.723 82.1449C571.332 79.0453 569.859 75.9829 568.306 72.961L564.748 74.79C566.269 77.7488 567.711 80.7474 569.073 83.7823L572.723 82.1449ZM564.424 65.791C562.745 62.8398 560.986 59.932 559.15 57.0711L555.783 59.2317C557.581 62.0328 559.303 64.8799 560.948 67.7695L564.424 65.791ZM554.6 50.3048C552.647 47.5293 550.618 44.8031 548.514 42.13L545.371 44.6035C547.43 47.2206 549.417 49.8895 551.329 52.607L554.6 50.3048ZM543.337 35.8319C541.127 33.2583 538.845 30.7398 536.492 28.28L533.602 31.0447C535.905 33.4527 538.139 35.9181 540.302 38.4376L543.337 35.8319ZM530.731 22.509C528.285 20.162 525.77 17.8755 523.189 15.653L520.579 18.6841C523.105 20.8597 525.567 23.0979 527.961 25.3953L530.731 22.509ZM516.897 10.4675C514.238 8.36999 511.514 6.33774 508.727 4.37404L506.423 7.64371C509.151 9.56589 511.817 11.5552 514.42 13.6083L516.897 10.4675ZM501.961 -0.178926C499.114 -2.00754 496.206 -3.76679 493.24 -5.45354L491.263 -1.97646C494.166 -0.325215 497.013 1.39695 499.8 3.18695L501.961 -0.178926ZM486.069 -9.33067C483.062 -10.8745 479.999 -12.3457 476.882 -13.7414L475.248 -10.0907C478.299 -8.72412 481.298 -7.28361 484.242 -5.77215L486.069 -9.33067ZM469.37 -16.9164C467.797 -17.5427 466.21 -18.1502 464.611 -18.7385L463.23 -14.9845C464.796 -14.4083 466.35 -13.8133 467.891 -13.1999L469.37 -16.9164ZM464.611 -18.7385C462.975 -19.3402 461.337 -19.9181 459.696 -20.4723L458.416 -16.6826C460.023 -16.1398 461.628 -15.5738 463.23 -14.9845L464.611 -18.7385ZM451.762 -22.9626C448.417 -23.934 445.063 -24.8092 441.704 -25.5895L440.799 -21.6933C444.087 -20.9293 447.371 -20.0724 450.647 -19.1212L451.762 -22.9626ZM433.564 -27.2941C430.143 -27.933 426.718 -28.475 423.295 -28.9218L422.777 -24.9554C426.128 -24.5181 429.48 -23.9875 432.83 -23.3621L433.564 -27.2941ZM415.027 -29.8166C411.561 -30.1147 408.1 -30.3162 404.646 -30.4228L404.523 -26.4247C407.904 -26.3204 411.292 -26.1231 414.684 -25.8313L415.027 -29.8166ZM396.329 -30.4964C392.855 -30.4508 389.39 -30.3097 385.94 -30.0746L386.212 -26.0838C389.589 -26.3139 392.98 -26.4521 396.382 -26.4968L396.329 -30.4964ZM377.656 -29.3275C374.206 -28.9399 370.772 -28.4584 367.359 -27.8847L368.022 -23.9401C371.364 -24.5017 374.725 -24.9731 378.103 -25.3525L377.656 -29.3275ZM359.189 -26.3272C355.796 -25.6032 352.426 -24.7876 349.084 -23.8819L350.13 -20.0212C353.402 -20.9079 356.701 -21.7065 360.024 -22.4152L359.189 -26.3272ZM341.106 -21.5324C337.801 -20.4807 334.527 -19.34 331.288 -18.1119L332.706 -14.3717C335.878 -15.5742 339.083 -16.6911 342.319 -17.7208L341.106 -21.5324ZM323.577 -14.9954C320.392 -13.6273 317.246 -12.1731 314.14 -10.6345L315.916 -7.0502C318.956 -8.55673 322.038 -9.98063 325.156 -11.3202L323.577 -14.9954ZM306.769 -6.7815C303.734 -5.11046 300.744 -3.35656 297.802 -1.52152L299.918 1.87254C302.799 0.0758337 305.727 -1.64146 308.698 -3.27762L306.769 -6.7815ZM290.842 3.03209C287.986 4.99034 285.181 7.0279 282.43 9.14308L284.869 12.3139C287.562 10.2431 290.308 8.24821 293.104 6.33093L290.842 3.03209ZM275.949 14.356C273.301 16.5833 270.709 18.8861 268.178 21.2627L270.916 24.1788C273.394 21.8523 275.931 19.5979 278.524 17.4174L275.949 14.356ZM262.24 27.0873C259.825 29.5627 257.472 32.1096 255.186 34.7262L258.198 37.3582C260.436 34.7969 262.739 32.3038 265.103 29.8807L262.24 27.0873ZM249.852 41.1079C247.695 43.8075 245.605 46.5741 243.586 49.4062L246.844 51.7279C248.82 48.9557 250.865 46.2475 252.977 43.6051L249.852 41.1079ZM238.909 56.2833C237.031 59.1799 235.225 62.139 233.493 65.159L236.964 67.1482C238.658 64.1917 240.427 61.295 242.265 58.4596L238.909 56.2833ZM229.517 72.4625C227.934 75.5263 226.427 78.6478 224.999 81.8254L228.647 83.4655C230.046 80.354 231.521 77.2978 233.071 74.2982L229.517 72.4625ZM221.754 89.4812C221.112 91.0902 220.49 92.7125 219.889 94.348L223.643 95.729C224.232 94.1272 224.841 92.5383 225.469 90.9625L221.754 89.4812ZM219.889 94.348C219.287 95.9834 218.709 97.6219 218.155 99.263L221.945 100.543C222.488 98.9356 223.054 97.3309 223.643 95.729L219.889 94.348ZM215.665 107.196C214.693 110.542 213.818 113.896 213.038 117.255L216.934 118.16C217.698 114.872 218.555 111.588 219.506 108.312L215.665 107.196ZM211.333 125.394C210.694 128.816 210.152 132.24 209.706 135.664L213.672 136.181C214.109 132.83 214.64 129.478 215.265 126.129L211.333 125.394ZM208.811 143.932C208.513 147.397 208.311 150.859 208.205 154.313L212.203 154.436C212.307 151.055 212.504 147.667 212.796 144.275L208.811 143.932ZM208.131 162.63C208.177 166.104 208.318 169.569 208.553 173.019L212.544 172.747C212.313 169.369 212.175 165.978 212.131 162.577L208.131 162.63ZM209.3 181.303C209.687 184.753 210.169 188.187 210.743 191.599L214.687 190.936C214.126 187.595 213.654 184.234 213.275 180.856L209.3 181.303ZM212.3 199.77C213.024 203.163 213.84 206.533 214.745 209.875L218.606 208.828C217.719 205.556 216.921 202.257 216.212 198.935L212.3 199.77ZM217.095 217.853C218.147 221.158 219.287 224.431 220.515 227.671L224.256 226.253C223.053 223.081 221.936 219.876 220.907 216.64L217.095 217.853ZM223.632 235.382C225 238.566 226.454 241.713 227.993 244.819L231.577 243.043C230.071 240.002 228.647 236.921 227.307 233.803L223.632 235.382ZM231.846 252.19C233.517 255.224 235.271 258.215 237.106 261.157L240.5 259.041C238.703 256.16 236.986 253.232 235.35 250.26L231.846 252.19ZM241.659 268.117C243.618 270.973 245.655 273.778 247.77 276.528L250.941 274.09C248.87 271.397 246.876 268.651 244.958 265.855L241.659 268.117ZM252.983 283.009C255.211 285.658 257.513 288.25 259.89 290.781L262.806 288.043C260.48 285.565 258.225 283.028 256.045 280.435L252.983 283.009ZM265.715 296.719C268.19 299.134 270.737 301.486 273.354 303.773L275.986 300.761C273.424 298.523 270.931 296.22 268.508 293.856L265.715 296.719ZM279.735 309.107C282.435 311.264 285.201 313.354 288.034 315.372L290.355 312.115C287.583 310.139 284.875 308.094 282.232 305.982L279.735 309.107ZM294.911 320.05C297.807 321.928 300.766 323.734 303.786 325.465L305.776 321.995C302.819 320.3 299.922 318.532 297.087 316.693L294.911 320.05ZM311.09 329.442C314.154 331.025 317.275 332.532 320.453 333.96L322.093 330.312C318.981 328.913 315.925 327.438 312.926 325.888L311.09 329.442ZM328.109 337.205C329.718 337.847 331.34 338.468 332.975 339.07L334.356 335.316C332.755 334.727 331.166 334.118 329.59 333.49L328.109 337.205ZM332.975 339.07C334.611 339.672 336.249 340.25 337.89 340.804L339.17 337.014C337.563 336.471 335.958 335.905 334.356 335.316L332.975 339.07ZM345.824 343.294C349.17 344.266 352.523 345.141 355.882 345.921L356.788 342.025C353.499 341.261 350.215 340.404 346.939 339.453L345.824 343.294ZM364.022 347.626C367.444 348.264 370.868 348.807 374.291 349.253L374.809 345.287C371.458 344.85 368.106 344.319 364.756 343.694L364.022 347.626ZM382.56 350.148C386.025 350.446 389.486 350.648 392.94 350.754L393.063 346.756C389.682 346.652 386.294 346.455 382.903 346.163L382.56 350.148ZM401.257 350.828C404.732 350.782 408.196 350.641 411.646 350.406L411.374 346.415C407.997 346.645 404.606 346.784 401.205 346.828L401.257 350.828ZM419.93 349.659C423.381 349.271 426.814 348.79 430.227 348.216L429.564 344.272C426.223 344.833 422.861 345.305 419.484 345.684L419.93 349.659ZM438.397 346.659C441.791 345.935 445.16 345.119 448.502 344.213L447.456 340.353C444.184 341.239 440.885 342.038 437.563 342.747L438.397 346.659ZM456.481 341.864C459.785 340.812 463.059 339.672 466.298 338.443L464.88 334.703C461.708 335.906 458.503 337.023 455.268 338.052L456.481 341.864ZM474.009 335.327C477.194 333.959 480.341 332.505 483.446 330.966L481.671 327.382C478.63 328.888 475.548 330.312 472.43 331.652L474.009 335.327ZM490.817 327.113C493.852 325.442 496.842 323.688 499.785 321.853L497.668 318.459C494.787 320.256 491.859 321.973 488.888 323.609L490.817 327.113ZM506.745 317.299C509.6 315.341 512.405 313.304 515.156 311.188L512.717 308.018C510.024 310.088 507.278 312.083 504.482 314.001L506.745 317.299ZM521.637 305.976C524.285 303.748 526.877 301.445 529.409 299.069L526.671 296.153C524.193 298.479 521.655 300.734 519.062 302.914L521.637 305.976ZM535.346 293.244C537.761 290.769 540.114 288.222 542.4 285.605L539.388 282.973C537.15 285.535 534.847 288.028 532.483 290.451L535.346 293.244ZM547.734 279.224C549.892 276.524 551.981 273.757 554 270.925L550.743 268.604C548.767 271.376 546.721 274.084 544.609 276.726L547.734 279.224ZM558.677 264.048C560.555 261.152 562.362 258.192 564.093 255.172L560.622 253.183C558.928 256.14 557.16 259.036 555.321 261.872L558.677 264.048ZM568.069 247.869C569.652 244.805 571.159 241.684 572.588 238.506L568.939 236.866C567.541 239.977 566.065 243.034 564.516 246.033L568.069 247.869ZM575.832 230.85C576.474 229.241 577.096 227.619 577.697 225.984L573.943 224.602C573.354 226.204 572.745 227.793 572.117 229.369L575.832 230.85Z" fill="black"/>
<rect x="258.052" y="118.738" width="281.482" height="82.8548" rx="41.4274" fill="white"/>
<path d="M489.965 172.373L479.394 154.063L500.536 154.063L489.965 172.373Z" fill="#D44527"/>
</g>
<defs>
<clipPath id="clip0_138_4402">
<rect width="797.419" height="320" fill="white" transform="translate(0 0.166016)"/>
</clipPath>
</defs>
</svg>
