<svg width="391" height="280" viewBox="0 0 391 280" fill="none" xmlns="http://www.w3.org/2000/svg">
<rect width="390.709" height="279" transform="translate(0.209473 0.166016)" fill="#D44527"/>
<path d="M258.21 119.161C258.553 119.32 258.959 119.17 259.118 118.827L261.7 113.237C261.859 112.894 261.709 112.487 261.366 112.329C261.023 112.17 260.617 112.32 260.458 112.663L258.163 117.632L253.193 115.336C252.85 115.178 252.444 115.328 252.285 115.671C252.127 116.014 252.276 116.42 252.619 116.579L258.21 119.161ZM259.139 118.304C258.764 117.284 258.364 116.273 257.941 115.273L256.68 115.807C257.095 116.787 257.487 117.777 257.855 118.776L259.139 118.304ZM255.726 110.554C254.729 108.625 253.64 106.743 252.461 104.915L251.311 105.656C252.466 107.448 253.533 109.292 254.51 111.182L255.726 110.554ZM249.469 100.645C248.158 98.9187 246.761 97.2518 245.283 95.6514L244.278 96.5801C245.726 98.1481 247.095 99.7813 248.379 101.473L249.469 100.645ZM241.599 91.9618C240.013 90.4913 238.349 89.0913 236.611 87.7685L235.782 88.8575C237.485 90.1533 239.115 91.5248 240.669 92.9654L241.599 91.9618ZM232.342 84.774C230.529 83.6048 228.649 82.5148 226.702 81.5104L226.075 82.7265C227.982 83.7106 229.824 84.7785 231.6 85.9239L232.342 84.774ZM221.981 79.2989C220.985 78.878 219.975 78.4786 218.949 78.1014L218.477 79.3857C219.482 79.7555 220.473 80.147 221.449 80.5594L221.981 79.2989ZM218.949 78.1014C217.916 77.7214 216.88 77.3681 215.841 77.0412L215.43 78.3466C216.449 78.6669 217.464 79.0132 218.477 79.3857L218.949 78.1014ZM210.771 75.658C208.621 75.1599 206.465 74.7712 204.311 74.4887L204.133 75.8455C206.243 76.1223 208.355 76.5031 210.462 76.9911L210.771 75.658ZM199.081 74.0098C196.884 73.8948 194.693 73.8885 192.515 73.9875L192.577 75.3546C194.71 75.2576 196.857 75.2638 199.01 75.3764L199.081 74.0098ZM187.28 74.4307C185.101 74.701 182.942 75.0766 180.811 75.5543L181.111 76.8896C183.199 76.4216 185.314 76.0536 187.448 75.7888L187.28 74.4307ZM175.734 76.9005C173.639 77.5436 171.578 78.2871 169.558 79.1276L170.084 80.3911C172.063 79.5674 174.083 78.8388 176.136 78.2087L175.734 76.9005ZM164.79 81.3311C162.841 82.3246 160.939 83.4125 159.092 84.5911L159.828 85.7447C161.638 84.5898 163.502 83.5239 165.412 82.5502L164.79 81.3311ZM154.776 87.5852C153.031 88.8987 151.346 90.2992 149.728 91.7832L150.653 92.7916C152.238 91.3377 153.889 89.9655 155.599 88.6785L154.776 87.5852ZM145.998 95.4834C144.511 97.0774 143.096 98.7502 141.759 100.498L142.846 101.33C144.156 99.617 145.542 97.9783 146.999 96.4167L145.998 95.4834ZM138.735 104.791C137.554 106.615 136.453 108.509 135.439 110.469L136.655 111.097C137.648 109.177 138.727 107.322 139.884 105.535L138.735 104.791ZM133.207 115.227C132.782 116.23 132.38 117.248 132 118.281L133.284 118.754C133.656 117.741 134.051 116.743 134.467 115.76L133.207 115.227ZM132 118.281C131.619 119.314 131.266 120.351 130.939 121.39L132.245 121.8C132.565 120.782 132.911 119.766 133.284 118.754L132 118.281ZM129.556 126.46C129.058 128.61 128.669 130.765 128.387 132.92L129.744 133.098C130.02 130.987 130.401 128.875 130.889 126.769L129.556 126.46ZM127.908 138.149C127.793 140.347 127.787 142.538 127.886 144.715L129.253 144.653C129.156 142.52 129.162 140.374 129.274 138.221L127.908 138.149ZM128.329 149.951C128.599 152.13 128.975 154.288 129.452 156.419L130.788 156.12C130.32 154.032 129.952 151.917 129.687 149.783L128.329 149.951ZM130.799 161.496C131.442 163.591 132.185 165.652 133.026 167.672L134.289 167.147C133.465 165.167 132.737 163.148 132.107 161.095L130.799 161.496ZM135.229 172.441C136.223 174.39 137.311 176.292 138.489 178.139L139.643 177.403C138.488 175.593 137.422 173.729 136.448 171.819L135.229 172.441ZM141.483 182.455C142.797 184.2 144.197 185.885 145.681 187.502L146.69 186.577C145.236 184.992 143.864 183.341 142.577 181.632L141.483 182.455ZM149.381 191.233C150.975 192.719 152.648 194.135 154.397 195.471L155.228 194.384C153.515 193.075 151.876 191.688 150.315 190.232L149.381 191.233ZM158.689 198.495C160.513 199.677 162.407 200.777 164.367 201.791L164.996 200.576C163.075 199.583 161.22 198.504 159.433 197.347L158.689 198.495ZM169.125 204.024C170.128 204.448 171.146 204.851 172.179 205.231L172.652 203.947C171.639 203.574 170.641 203.18 169.658 202.764L169.125 204.024ZM172.179 205.231C173.212 205.611 174.249 205.964 175.288 206.291L175.698 204.986C174.68 204.666 173.664 204.319 172.652 203.947L172.179 205.231ZM180.358 207.675C182.508 208.173 184.664 208.561 186.818 208.844L186.996 207.487C184.885 207.21 182.773 206.829 180.667 206.341L180.358 207.675ZM192.047 209.323C194.245 209.438 196.436 209.444 198.613 209.345L198.551 207.978C196.418 208.075 194.272 208.069 192.119 207.956L192.047 209.323ZM203.849 208.902C206.028 208.632 208.186 208.256 210.317 207.778L210.018 206.443C207.93 206.911 205.815 207.279 203.681 207.544L203.849 208.902ZM215.395 206.432C217.489 205.789 219.55 205.045 221.57 204.205L221.045 202.941C219.065 203.765 217.046 204.494 214.993 205.124L215.395 206.432ZM226.339 202.001C228.288 201.008 230.19 199.92 232.037 198.741L231.301 197.588C229.491 198.743 227.627 199.809 225.717 200.782L226.339 202.001ZM236.353 195.747C238.098 194.434 239.783 193.033 241.4 191.549L240.475 190.541C238.89 191.995 237.239 193.367 235.53 194.654L236.353 195.747ZM245.131 187.849C246.617 186.255 248.033 184.582 249.369 182.834L248.282 182.003C246.973 183.716 245.586 185.354 244.13 186.916L245.131 187.849ZM252.394 178.541C253.575 176.717 254.676 174.824 255.689 172.864L254.474 172.235C253.481 174.156 252.402 176.011 251.245 177.798L252.394 178.541ZM257.922 168.106C258.347 167.103 258.749 166.084 259.129 165.051L257.845 164.579C257.472 165.592 257.078 166.59 256.662 167.573L257.922 168.106ZM257.923 119.782C258.609 120.099 259.422 119.8 259.739 119.114L264.904 107.933C265.221 107.247 264.922 106.434 264.236 106.117C263.55 105.8 262.737 106.099 262.42 106.785L257.828 116.724L247.89 112.133C247.204 111.816 246.391 112.115 246.074 112.801C245.757 113.487 246.056 114.3 246.742 114.617L257.923 119.782ZM259.781 118.067C259.402 117.037 258.998 116.017 258.571 115.006L256.05 116.073C256.461 117.044 256.849 118.024 257.213 119.013L259.781 118.067ZM256.334 110.239C255.327 108.291 254.226 106.39 253.036 104.544L250.736 106.027C251.879 107.8 252.935 109.625 253.902 111.496L256.334 110.239ZM250.014 100.231C248.69 98.4874 247.279 96.8037 245.785 95.187L243.775 97.0445C245.209 98.5962 246.563 100.213 247.835 101.887L250.014 100.231ZM242.064 91.4599C240.462 89.9746 238.781 88.5603 237.025 87.224L235.368 89.402C237.052 90.6843 238.666 92.0416 240.203 93.4672L242.064 91.4599ZM232.713 84.199C230.882 83.0179 228.982 81.9169 227.016 80.9024L225.761 83.3345C227.648 84.3085 229.472 85.3653 231.229 86.4989L232.713 84.199ZM222.248 78.6687C221.242 78.2436 220.221 77.8402 219.186 77.4593L218.241 80.0279C219.236 80.3939 220.216 80.7814 221.182 81.1897L222.248 78.6687ZM219.186 77.4593C218.142 77.0755 217.096 76.7187 216.046 76.3885L215.225 78.9992C216.233 79.3164 217.238 79.6591 218.241 80.0279L219.186 77.4593ZM210.925 74.9914C208.753 74.4883 206.576 74.0956 204.4 73.8102L204.044 76.5239C206.133 76.7978 208.222 77.1747 210.307 77.6577L210.925 74.9914ZM199.117 73.3265C196.897 73.2104 194.684 73.204 192.484 73.304L192.609 76.0381C194.719 75.9421 196.844 75.9482 198.974 76.0597L199.117 73.3265ZM187.195 73.7517C184.995 74.0247 182.814 74.4042 180.662 74.8866L181.26 77.5573C183.327 77.0941 185.42 76.7298 187.532 76.4678L187.195 73.7517ZM175.533 76.2464C173.417 76.8959 171.336 77.6469 169.295 78.4959L170.347 81.0228C172.306 80.2076 174.305 79.4865 176.337 78.8628L175.533 76.2464ZM164.479 80.7215C162.511 81.725 160.59 82.8238 158.724 84.0142L160.196 86.3216C161.987 85.1785 163.832 84.1235 165.722 83.1598L164.479 80.7215ZM154.365 87.0386C152.602 88.3653 150.9 89.7799 149.266 91.279L151.116 93.2958C152.685 91.8569 154.318 90.4989 156.011 89.2252L154.365 87.0386ZM145.497 95.0168C143.996 96.6269 142.566 98.3167 141.216 100.083L143.39 101.745C144.686 100.05 146.058 98.4287 147.499 96.8833L145.497 95.0168ZM138.161 104.419C136.968 106.262 135.856 108.174 134.831 110.154L137.262 111.412C138.246 109.511 139.313 107.675 140.458 105.907L138.161 104.419ZM132.576 114.96C132.148 115.973 131.741 117.002 131.357 118.045L133.926 118.99C134.295 117.987 134.685 117 135.097 116.026L132.576 114.96ZM131.357 118.045C130.974 119.088 130.617 120.135 130.287 121.184L132.897 122.006C133.214 120.998 133.557 119.992 133.926 118.99L131.357 118.045ZM128.889 126.306C128.386 128.477 127.994 130.655 127.708 132.831L130.422 133.187C130.696 131.098 131.073 129.008 131.556 126.923L128.889 126.306ZM127.225 138.113C127.108 140.334 127.102 142.547 127.202 144.746L129.936 144.622C129.84 142.511 129.846 140.387 129.958 138.256L127.225 138.113ZM127.65 150.035C127.923 152.236 128.302 154.416 128.785 156.569L131.455 155.97C130.992 153.904 130.628 151.811 130.366 149.698L127.65 150.035ZM130.144 161.697C130.794 163.813 131.545 165.895 132.394 167.935L134.921 166.884C134.106 164.925 133.385 162.926 132.761 160.894L130.144 161.697ZM134.62 172.751C135.623 174.72 136.722 176.641 137.912 178.507L140.22 177.035C139.077 175.243 138.022 173.399 137.058 171.508L134.62 172.751ZM140.937 182.866C142.263 184.629 143.678 186.331 145.177 187.965L147.194 186.115C145.755 184.546 144.397 182.912 143.123 181.22L140.937 182.866ZM148.915 191.733C150.525 193.235 152.215 194.664 153.981 196.015L155.643 193.841C153.948 192.545 152.327 191.173 150.781 189.732L148.915 191.733ZM158.317 199.07C160.16 200.263 162.073 201.375 164.052 202.399L165.31 199.968C163.409 198.985 161.573 197.918 159.805 196.773L158.317 199.07ZM168.858 204.654C169.871 205.083 170.9 205.489 171.943 205.873L172.888 203.305C171.886 202.936 170.898 202.545 169.925 202.134L168.858 204.654ZM171.943 205.873C172.986 206.257 174.033 206.614 175.082 206.944L175.904 204.333C174.896 204.016 173.89 203.673 172.888 203.305L171.943 205.873ZM180.204 208.341C182.375 208.844 184.553 209.237 186.729 209.522L187.085 206.809C184.996 206.535 182.906 206.158 180.821 205.675L180.204 208.341ZM192.012 210.006C194.232 210.122 196.445 210.129 198.644 210.029L198.52 207.294C196.409 207.39 194.285 207.384 192.154 207.273L192.012 210.006ZM203.933 209.581C206.134 209.308 208.314 208.928 210.467 208.446L209.869 205.775C207.802 206.238 205.709 206.603 203.596 206.865L203.933 209.581ZM215.595 207.086C217.711 206.437 219.793 205.686 221.833 204.837L220.782 202.31C218.823 203.125 216.824 203.846 214.792 204.47L215.595 207.086ZM226.649 202.611C228.618 201.608 230.539 200.509 232.405 199.318L230.933 197.011C229.141 198.154 227.297 199.209 225.406 200.173L226.649 202.611ZM236.764 196.294C238.527 194.967 240.229 193.553 241.863 192.054L240.013 190.037C238.444 191.476 236.81 192.834 235.118 194.107L236.764 196.294ZM245.631 188.316C247.133 186.706 248.563 185.016 249.913 183.25L247.739 181.587C246.443 183.282 245.071 184.904 243.63 186.449L245.631 188.316ZM252.968 178.913C254.161 177.071 255.273 175.158 256.297 173.178L253.866 171.921C252.883 173.821 251.816 175.657 250.671 177.426L252.968 178.913ZM258.552 168.372C258.981 167.359 259.388 166.331 259.771 165.288L257.203 164.343C256.834 165.345 256.443 166.333 256.032 167.306L258.552 168.372Z" fill="black"/>
<rect x="137.166" y="124.784" width="116.872" height="34.4014" rx="17.2007" fill="white"/>
<path d="M233.456 147.053L229.067 139.451L237.845 139.451L233.456 147.053Z" fill="#D44527"/>
</svg>
