<svg width="256" height="239" viewBox="0 0 256 239" fill="none" xmlns="http://www.w3.org/2000/svg">
<rect width="255.14" height="238" transform="translate(0.48877 0.166016)" fill="#EDEDED"/>
<rect x="58.583" y="74.5088" width="138.672" height="89.314" rx="3" fill="white"/>
<path d="M58.583 77.5088C58.583 75.8519 59.9262 74.5088 61.583 74.5088H194.255C195.912 74.5088 197.255 75.8519 197.255 77.5088V91.4653H58.583V77.5088Z" fill="white"/>
<path d="M68.215 86.1824C69.7074 86.1824 70.9172 85.0104 70.9172 83.5646C70.9172 82.1188 69.7074 80.9468 68.215 80.9468C66.7225 80.9468 65.5127 82.1188 65.5127 83.5646C65.5127 85.0104 66.7225 86.1824 68.215 86.1824Z" fill="#D5D5D5"/>
<path d="M78.1139 86.1824C79.6063 86.1824 80.8162 85.0104 80.8162 83.5646C80.8162 82.1188 79.6063 80.9468 78.1139 80.9468C76.6215 80.9468 75.4116 82.1188 75.4116 83.5646C75.4116 85.0104 76.6215 86.1824 78.1139 86.1824Z" fill="#D5D5D5"/>
<path d="M88.0128 86.1824C89.5052 86.1824 90.7151 85.0104 90.7151 83.5646C90.7151 82.1188 89.5052 80.9468 88.0128 80.9468C86.5204 80.9468 85.3105 82.1188 85.3105 83.5646C85.3105 85.0104 86.5204 86.1824 88.0128 86.1824Z" fill="#D5D5D5"/>
<rect x="83.8621" y="93.2373" width="109.36" height="44.3945" fill="#CF4326"/>
<rect x="83.8621" y="140.862" width="53.1169" height="18.5068" fill="#D9D9D9"/>
<rect x="139.979" y="140.862" width="53.1169" height="18.5068" fill="#D9D9D9"/>
<circle cx="68.7183" cy="96.4429" r="3.20557" fill="#CF4326"/>
<circle cx="68.7183" cy="107.542" r="3.20557" fill="#D9D9D9"/>
<circle cx="68.7183" cy="118.64" r="3.20557" fill="#D9D9D9"/>
<circle cx="68.7183" cy="129.739" r="3.20557" fill="#D9D9D9"/>
<circle cx="68.7183" cy="140.837" r="3.20557" fill="#D9D9D9"/>
</svg>
