<svg width="391" height="280" viewBox="0 0 391 280" fill="none" xmlns="http://www.w3.org/2000/svg">
<rect width="390.709" height="279" transform="translate(0.209473 0.166016)" fill="#D44527"/>
<rect x="137.045" y="80.2446" width="55.4547" height="112.842" rx="8.63448" fill="white"/>
<path d="M147.71 93.5605L153.955 99.7364" stroke="#E53930" stroke-width="0.974433" stroke-miterlimit="10"/>
<path d="M145.135 99.7373H142.614C142.622 96.7641 143.819 93.9149 145.945 91.8126C148.071 89.7102 150.952 88.5257 153.959 88.5181V91.032C151.622 91.032 149.381 91.9485 147.727 93.5804C146.073 95.2124 145.141 97.4266 145.135 99.7373Z" fill="#262626"/>
<rect x="142.623" y="127.659" width="44.571" height="19.8093" rx="3.12628" fill="#D9D9D9"/>
<rect x="142.623" y="152.42" width="44.571" height="19.8093" rx="3.12628" fill="#D9D9D9"/>
<rect x="143.135" y="177.182" width="43.5456" height="9.40271" rx="4.70136" fill="#D44527"/>
<path d="M198.629 88.8791C198.629 84.1104 202.494 80.2446 207.263 80.2446H245.449C250.218 80.2446 254.083 84.1104 254.083 88.8791V184.452C254.083 189.221 250.218 193.087 245.449 193.087H207.263C202.494 193.087 198.629 189.221 198.629 184.452V88.8791Z" fill="#2F2F2F"/>
<path d="M209.294 93.5605L215.538 99.7364" stroke="#E53930" stroke-width="0.974433" stroke-miterlimit="10"/>
<path d="M206.719 99.7368H204.198C204.206 96.7636 205.403 93.9144 207.529 91.8121C209.655 89.7097 212.536 88.5253 215.542 88.5176V91.0315C213.206 91.0315 210.965 91.948 209.311 93.58C207.656 95.2119 206.724 97.4261 206.719 99.7368Z" fill="white"/>
<rect x="204.207" y="127.659" width="44.571" height="19.8093" rx="3.12628" fill="#555555"/>
<rect x="204.207" y="152.42" width="44.571" height="19.8093" rx="3.12628" fill="#555555"/>
<rect x="204.198" y="177.182" width="43.5456" height="9.40271" rx="4.70136" fill="#D44527"/>
</svg>
