<svg width="798" height="321" viewBox="0 0 798 321" fill="none" xmlns="http://www.w3.org/2000/svg">
<rect width="797.419" height="320" transform="translate(0 0.166016)" fill="#D44527"/>
<rect x="305.454" y="70.2549" width="88.3714" height="179.823" rx="13.7597" fill="white"/>
<path d="M322.45 91.4751L332.401 101.317" stroke="#E53930" stroke-width="1.55284" stroke-miterlimit="10"/>
<path d="M318.347 101.317H314.329C314.342 96.5787 316.25 92.0383 319.638 88.688C323.026 85.3378 327.617 83.4502 332.408 83.438V87.4441C328.684 87.4441 325.113 88.9046 322.477 91.5053C319.841 94.1059 318.356 97.6344 318.347 101.317Z" fill="#262626"/>
<rect x="314.343" y="145.812" width="71.0273" height="31.5676" rx="4.98197" fill="#D9D9D9"/>
<rect x="314.343" y="185.272" width="71.0273" height="31.5676" rx="4.98197" fill="#D9D9D9"/>
<rect x="315.16" y="224.733" width="69.3933" height="14.984" rx="7.49198" fill="#D44527"/>
<path d="M403.593 84.0146C403.593 76.4153 409.753 70.2549 417.353 70.2549H478.205C485.804 70.2549 491.964 76.4153 491.964 84.0146V236.318C491.964 243.917 485.804 250.078 478.205 250.078H417.353C409.753 250.078 403.593 243.917 403.593 236.318V84.0146Z" fill="#2F2F2F"/>
<path d="M420.588 91.4751L430.54 101.317" stroke="#E53930" stroke-width="1.55284" stroke-miterlimit="10"/>
<path d="M416.485 101.317H412.468C412.48 96.5787 414.389 92.0383 417.776 88.688C421.164 85.3378 425.755 83.4502 430.546 83.438V87.4441C426.823 87.4441 423.251 88.9046 420.615 91.5053C417.979 94.1059 416.494 97.6344 416.485 101.317Z" fill="white"/>
<rect x="412.481" y="145.812" width="71.0273" height="31.5676" rx="4.98197" fill="#555555"/>
<rect x="412.481" y="185.272" width="71.0273" height="31.5676" rx="4.98197" fill="#555555"/>
<rect x="412.468" y="224.733" width="69.3933" height="14.984" rx="7.49198" fill="#D44527"/>
</svg>
