<svg width="798" height="401" viewBox="0 0 798 401" fill="none" xmlns="http://www.w3.org/2000/svg">
<rect width="797.419" height="400" transform="translate(0.581299 0.166016)" fill="#EDEDED"/>
<rect x="249.625" y="103.772" width="299.33" height="192.788" rx="6.4855" fill="white"/>
<path d="M249.625 110.257C249.625 106.676 252.529 103.772 256.111 103.772H542.47C546.052 103.772 548.955 106.676 548.955 110.257V140.373H249.625V110.257Z" fill="white"/>
<path d="M270.416 128.97C273.638 128.97 276.249 126.44 276.249 123.319C276.249 120.198 273.638 117.668 270.416 117.668C267.195 117.668 264.583 120.198 264.583 123.319C264.583 126.44 267.195 128.97 270.416 128.97Z" fill="#D5D5D5"/>
<path d="M291.784 128.97C295.005 128.97 297.617 126.44 297.617 123.319C297.617 120.198 295.005 117.668 291.784 117.668C288.562 117.668 285.951 120.198 285.951 123.319C285.951 126.44 288.562 128.97 291.784 128.97Z" fill="#D5D5D5"/>
<path d="M313.151 128.97C316.373 128.97 318.984 126.44 318.984 123.319C318.984 120.198 316.373 117.668 313.151 117.668C309.93 117.668 307.318 120.198 307.318 123.319C307.318 126.44 309.93 128.97 313.151 128.97Z" fill="#D5D5D5"/>
<rect x="304.192" y="144.198" width="236.058" height="95.8276" fill="#CF4326"/>
<rect x="304.192" y="246.999" width="114.65" height="40.0085" fill="#D9D9D9"/>
<rect x="425.327" y="246.999" width="114.65" height="40.0085" fill="#D9D9D9"/>
<circle cx="271.503" cy="151.118" r="6.91936" fill="#CF4326"/>
<circle cx="271.503" cy="175.075" r="6.91936" fill="#D9D9D9"/>
<circle cx="271.503" cy="199.031" r="6.91936" fill="#D9D9D9"/>
<circle cx="271.503" cy="222.988" r="6.91936" fill="#D9D9D9"/>
<circle cx="271.503" cy="246.945" r="6.91936" fill="#D9D9D9"/>
</svg>
