<svg width="798" height="401" viewBox="0 0 798 401" fill="none" xmlns="http://www.w3.org/2000/svg">
<rect width="797.419" height="400" transform="translate(0.581299 0.166016)" fill="#555555"/>
<path d="M249.626 140.374H548.955V290.084C548.955 293.661 546.056 296.56 542.48 296.56H256.102C252.525 296.56 249.626 293.661 249.626 290.084V140.374Z" fill="black"/>
<path d="M249.626 110.248C249.626 106.672 252.525 103.772 256.102 103.772H542.48C546.056 103.772 548.955 106.672 548.955 110.248V140.374H249.626V110.248Z" fill="white"/>
<rect x="264.584" y="157.153" width="35.5883" height="7.68452" rx="3.84226" fill="#5A5A5A"/>
<rect x="264.584" y="173.472" width="74.1065" height="7.68452" rx="3.84226" fill="#5A5A5A"/>
<rect x="264.584" y="189.791" width="54.4003" height="7.68452" rx="3.84226" fill="#5A5A5A"/>
<rect x="264.584" y="206.109" width="35.5885" height="7.68452" rx="3.84226" fill="#5A5A5A"/>
<rect x="264.584" y="238.747" width="35.5885" height="7.68452" rx="3.84226" fill="#5A5A5A"/>
<rect x="264.584" y="222.428" width="60.5866" height="7.68452" rx="3.84226" fill="#5A5A5A"/>
<rect x="264.584" y="271.384" width="60.5866" height="7.68452" rx="3.84226" fill="#5A5A5A"/>
<rect x="264.584" y="255.065" width="101.146" height="7.68452" rx="3.84226" fill="#5A5A5A"/>
<path d="M270.417 128.97C273.639 128.97 276.25 126.44 276.25 123.32C276.25 120.199 273.639 117.669 270.417 117.669C267.196 117.669 264.584 120.199 264.584 123.32C264.584 126.44 267.196 128.97 270.417 128.97Z" fill="#D5D5D5"/>
<path d="M291.784 128.97C295.006 128.97 297.617 126.44 297.617 123.32C297.617 120.199 295.006 117.669 291.784 117.669C288.563 117.669 285.951 120.199 285.951 123.32C285.951 126.44 288.563 128.97 291.784 128.97Z" fill="#D5D5D5"/>
<path d="M313.151 128.97C316.373 128.97 318.984 126.44 318.984 123.32C318.984 120.199 316.373 117.669 313.151 117.669C309.93 117.669 307.319 120.199 307.319 123.32C307.319 126.44 309.93 128.97 313.151 128.97Z" fill="#D5D5D5"/>
</svg>
