<svg width="798" height="321" viewBox="0 0 798 321" fill="none" xmlns="http://www.w3.org/2000/svg">
<rect width="797.419" height="320" transform="translate(0 0.166016)" fill="#D44527"/>
<rect x="185.105" y="142.167" width="52.637" height="107.109" rx="10.9882" fill="white"/>
<path d="M195.917 155.195L203.25 162.178" stroke="#E53930" stroke-width="0.714124" stroke-miterlimit="10"/>
<path d="M193.396 162.747H190.58C190.589 159.39 191.927 156.173 194.301 153.798C196.675 151.424 199.892 150.087 203.25 150.078V152.917C200.64 152.917 198.138 153.952 196.29 155.795C194.443 157.638 193.402 160.138 193.396 162.747Z" fill="#262626"/>
<rect x="190.4" y="175.91" width="42.3062" height="29.46" rx="3.97848" fill="#D9D9D9"/>
<rect x="190.4" y="209.196" width="25.1602" height="18.8027" rx="3.97848" fill="#D9D9D9"/>
<path d="M223.321 227.999C221.124 227.999 219.343 226.218 219.343 224.021L219.343 213.175C219.343 210.977 221.124 209.196 223.321 209.196L232.219 209.196L232.219 227.999L223.321 227.999Z" fill="#D9D9D9"/>
<rect x="190.887" y="234.18" width="41.3329" height="8.92494" rx="4.46247" fill="#D44527"/>
<rect x="243.632" y="71.0557" width="135.284" height="178.22" rx="10.9882" fill="white"/>
<path d="M262.27 89.1108L269.603 96.0938" stroke="#E53930" stroke-width="0.714124" stroke-miterlimit="10"/>
<path d="M259.749 96.6635H256.933C256.942 93.306 258.28 90.0886 260.654 87.7145C263.028 85.3404 266.245 84.0028 269.603 83.9941V86.833C266.993 86.833 264.49 87.868 262.643 89.7109C260.796 91.5538 259.755 94.0541 259.749 96.6635Z" fill="#262626"/>
<rect x="290.939" y="223.764" width="41.3329" height="8.92494" rx="4.46247" fill="#D44527"/>
<rect x="257.24" y="187.312" width="51.6891" height="31.2863" rx="3.97848" fill="#D9D9D9"/>
<rect x="314.283" y="187.312" width="51.6891" height="31.2863" rx="3.97848" fill="#D9D9D9"/>
<rect x="257.24" y="135.859" width="108.733" height="45.4528" rx="3.97848" fill="#D9D9D9"/>
<rect x="384.806" y="71.0557" width="252.935" height="178.22" rx="10.9882" fill="white"/>
<path d="M403.444 87.8872L410.777 94.8701" stroke="#E53930" stroke-width="0.714124" stroke-miterlimit="10"/>
<path d="M400.923 95.4399H398.107C398.116 92.0824 399.454 88.8649 401.828 86.4909C404.202 84.1168 407.419 82.7792 410.777 82.7705V85.6094C408.167 85.6094 405.665 86.6443 403.817 88.4872C401.97 90.3301 400.929 92.8305 400.923 95.4399Z" fill="#262626"/>
<rect x="490.47" y="223.764" width="41.3329" height="8.92494" rx="4.46247" fill="#D44527"/>
<rect x="398.414" y="187.312" width="71.7468" height="31.2863" rx="3.97848" fill="#D9D9D9"/>
<rect x="475.264" y="187.312" width="71.7468" height="31.2863" rx="3.97848" fill="#D9D9D9"/>
<rect x="552.114" y="187.312" width="71.7468" height="31.2863" rx="3.97848" fill="#D9D9D9"/>
<rect x="398.414" y="111.15" width="225.447" height="71.1613" rx="3.97848" fill="#D9D9D9"/>
</svg>
