<svg width="392" height="280" viewBox="0 0 392 280" fill="none" xmlns="http://www.w3.org/2000/svg">
<rect width="390.709" height="279" transform="translate(0.918945 0.166016)" fill="#D44527"/>
<rect x="130.641" y="124.226" width="35.6502" height="72.5429" rx="7.44212" fill="white"/>
<path d="M137.964 133.05L142.93 137.779" stroke="#E53930" stroke-width="0.483665" stroke-miterlimit="10"/>
<path d="M136.256 138.165H134.35C134.355 135.891 135.261 133.712 136.869 132.104C138.477 130.496 140.656 129.59 142.93 129.584V131.507C141.163 131.507 139.468 132.208 138.217 133.456C136.966 134.704 136.261 136.397 136.256 138.165Z" fill="#262626"/>
<rect x="134.227" y="147.08" width="28.6533" height="19.9528" rx="2.69456" fill="#D9D9D9"/>
<rect x="134.227" y="169.624" width="17.0406" height="12.7348" rx="2.69456" fill="#D9D9D9"/>
<path d="M156.524 182.358C155.036 182.358 153.83 181.152 153.83 179.664L153.83 172.318C153.83 170.83 155.036 169.624 156.524 169.624L162.551 169.624L162.551 182.358L156.524 182.358Z" fill="#D9D9D9"/>
<rect x="134.557" y="186.544" width="27.9941" height="6.04472" rx="3.02236" fill="#D44527"/>
<rect x="170.28" y="76.063" width="91.6258" height="120.706" rx="7.44212" fill="white"/>
<path d="M182.904 88.2915L187.87 93.0209" stroke="#E53930" stroke-width="0.483665" stroke-miterlimit="10"/>
<path d="M181.196 93.4064H179.289C179.295 91.1325 180.201 88.9533 181.809 87.3454C183.416 85.7375 185.596 84.8316 187.87 84.8257V86.7484C186.102 86.7484 184.407 87.4494 183.156 88.6975C181.905 89.9457 181.2 91.6392 181.196 93.4064Z" fill="#262626"/>
<rect x="202.321" y="179.49" width="27.9941" height="6.04472" rx="3.02236" fill="#D44527"/>
<rect x="179.496" y="154.801" width="35.0082" height="21.1897" rx="2.69456" fill="#D9D9D9"/>
<rect x="218.131" y="154.801" width="35.0082" height="21.1897" rx="2.69456" fill="#D9D9D9"/>
<rect x="179.496" y="119.953" width="73.643" height="30.7844" rx="2.69456" fill="#D9D9D9"/>
</svg>
