<svg width="256" height="239" viewBox="0 0 256 239" fill="none" xmlns="http://www.w3.org/2000/svg">
<rect width="255.14" height="238" transform="translate(0.209473 0.166016)" fill="#EDEDED"/>
<path d="M185.927 155.008H95.0181C90.9953 155.003 87.1384 153.401 84.2937 150.553C81.449 147.704 79.8485 143.842 79.8435 139.814V118.156H82.8031V139.814C82.8065 143.056 84.0943 146.165 86.3839 148.458C88.6735 150.751 91.7779 152.041 95.0159 152.044H185.927C188.529 152.041 191.023 151.005 192.863 149.163C194.703 147.32 195.738 144.822 195.74 142.216H198.7C198.696 145.608 197.349 148.859 194.955 151.257C192.56 153.655 189.313 155.004 185.927 155.008Z" fill="white"/>
<path d="M96.2411 153.393L81.2153 138.367L66.1895 153.393L81.2153 168.419L96.2411 153.393Z" fill="white"/>
<path d="M96.2411 112.225L81.2153 97.1992L66.1895 112.225L81.2153 127.251L96.2411 112.225Z" fill="white"/>
<path d="M141.753 158.992C144.779 158.992 147.231 156.54 147.231 153.514C147.231 150.489 144.779 148.036 141.753 148.036C138.728 148.036 136.275 150.489 136.275 153.514C136.275 156.54 138.728 158.992 141.753 158.992Z" fill="#D44527"/>
<path d="M85.6168 117.824H52.4114L52.7381 107.532H85.9435L85.6168 117.824Z" fill="white"/>
<path d="M200.692 142.724H192.435V85.6548C192.433 83.7265 191.667 81.8778 190.304 80.5143C188.942 79.1507 187.095 78.3837 185.169 78.3815H151.458C132.004 78.3815 114.23 78.3815 96.8222 78.3815H94.7224C92.1746 78.3843 89.7318 79.3986 87.9302 81.202C86.1286 83.0053 85.1152 85.4504 85.1124 88.0007V109.719H76.8555V88.0007C76.8611 83.2593 78.7453 78.7137 82.0948 75.361C85.4443 72.0083 89.9855 70.1223 94.7224 70.1167H96.8222C115.574 70.1167 135.511 70.1167 151.458 70.1167H185.169C189.284 70.1212 193.23 71.7597 196.14 74.6727C199.051 77.5857 200.688 81.5352 200.692 85.6548V142.724Z" fill="white"/>
<path d="M140.167 78.5467C142.57 78.5467 144.518 76.6596 144.518 74.3317C144.518 72.0038 142.57 70.1167 140.167 70.1167C137.764 70.1167 135.816 72.0038 135.816 74.3317C135.816 76.6596 137.764 78.5467 140.167 78.5467Z" fill="#D44527"/>
<path d="M52.0796 118.156C55.1967 118.156 57.7236 115.704 57.7236 112.678C57.7236 109.653 55.1967 107.2 52.0796 107.2C48.9625 107.2 46.4355 109.653 46.4355 112.678C46.4355 115.704 48.9625 118.156 52.0796 118.156Z" fill="#D44527"/>
<path d="M197.04 166.296C204.008 166.296 209.656 160.573 209.656 153.514C209.656 146.455 204.008 140.732 197.04 140.732C190.072 140.732 184.424 146.455 184.424 153.514C184.424 160.573 190.072 166.296 197.04 166.296Z" fill="#D44527" stroke="white" stroke-width="9" stroke-miterlimit="10"/>
<path d="M89.6488 112.268L81.2603 103.88L72.8717 112.268L81.2603 120.657L89.6488 112.268Z" fill="#D44527"/>
<path d="M89.6488 153.393L81.2603 145.004L72.8717 153.393L81.2603 161.781L89.6488 153.393Z" fill="#D44527"/>
</svg>
