<svg width="798" height="401" viewBox="0 0 798 401" fill="none" xmlns="http://www.w3.org/2000/svg">
<rect width="797.419" height="400" transform="translate(0.581299 0.166016)" fill="#EDEDED"/>
<path d="M529.42 280.518H325.037C315.993 280.508 307.322 276.906 300.927 270.502C294.531 264.098 290.933 255.415 290.922 246.358V197.667H297.576V246.358C297.583 253.648 300.478 260.638 305.626 265.793C310.773 270.948 317.753 273.847 325.032 273.855H529.42C535.27 273.848 540.878 271.519 545.014 267.376C549.15 263.234 551.477 257.618 551.483 251.76H558.137C558.128 259.385 555.1 266.694 549.716 272.085C544.333 277.477 537.034 280.509 529.42 280.518Z" fill="white"/>
<path d="M327.787 276.887L294.006 243.105L260.225 276.887L294.006 310.668L327.787 276.887Z" fill="white"/>
<path d="M327.787 184.333L294.006 150.551L260.225 184.333L294.006 218.114L327.787 184.333Z" fill="white"/>
<path d="M430.108 289.475C436.91 289.475 442.424 283.961 442.424 277.159C442.424 270.357 436.91 264.843 430.108 264.843C423.306 264.843 417.792 270.357 417.792 277.159C417.792 283.961 423.306 289.475 430.108 289.475Z" fill="#D9D9D9"/>
<path d="M303.901 196.92H229.248L229.983 173.782H304.636L303.901 196.92Z" fill="white"/>
<path d="M562.615 252.901H544.052V124.597C544.047 120.262 542.324 116.106 539.262 113.04C536.199 109.975 532.047 108.25 527.716 108.245H451.927C408.19 108.245 368.229 108.245 329.094 108.245H324.373C318.645 108.251 313.153 110.532 309.102 114.586C305.052 118.641 302.774 124.138 302.767 129.871V178.698H284.204V129.871C284.217 119.211 288.453 108.992 295.983 101.454C303.513 93.9168 313.723 89.6767 324.373 89.6641H329.094C371.253 89.6641 416.075 89.6641 451.927 89.6641H527.716C536.969 89.6742 545.84 93.3579 552.382 99.9069C558.925 106.456 562.605 115.335 562.615 124.597V252.901Z" fill="white"/>
<path d="M426.541 108.617C431.944 108.617 436.323 104.374 436.323 99.1404C436.323 93.9067 431.944 89.6641 426.541 89.6641C421.139 89.6641 416.759 93.9067 416.759 99.1404C416.759 104.374 421.139 108.617 426.541 108.617Z" fill="#D9D9D9"/>
<path d="M228.502 197.667C235.51 197.667 241.191 192.153 241.191 185.351C241.191 178.549 235.51 173.035 228.502 173.035C221.494 173.035 215.813 178.549 215.813 185.351C215.813 192.153 221.494 197.667 228.502 197.667Z" fill="#D9D9D9"/>
<path d="M554.405 305.896C570.07 305.896 582.769 293.03 582.769 277.159C582.769 261.288 570.07 248.422 554.405 248.422C538.74 248.422 526.041 261.288 526.041 277.159C526.041 293.03 538.74 305.896 554.405 305.896Z" fill="#D44527" stroke="white" stroke-width="17.1117" stroke-miterlimit="10"/>
<path d="M312.966 184.431L294.106 165.571L275.247 184.431L294.106 203.29L312.966 184.431Z" fill="black"/>
<path d="M312.966 276.888L294.106 258.028L275.247 276.888L294.106 295.747L312.966 276.888Z" fill="black"/>
</svg>
