<svg width="799" height="173" viewBox="0 0 799 173" fill="none" xmlns="http://www.w3.org/2000/svg">
<rect width="798" height="172" transform="translate(0.209473 0.166016)" fill="#F7F7F7"/>
<path d="M236.035 85.5761L248.308 97.523" stroke="#D44527" stroke-width="1.44068" stroke-miterlimit="10"/>
<path d="M230.976 97.5233H226.021C226.036 91.7719 228.39 86.2603 232.568 82.1935C236.746 78.1266 242.408 75.8353 248.317 75.8205V80.6835C243.725 80.6835 239.32 82.4564 236.069 85.6133C232.818 88.7702 230.987 93.0534 230.976 97.5233ZM255.748 81.5918C256.095 79.9842 257.4 79.0759 260.232 79.0759C263.676 79.0759 264.881 80.5469 264.881 83.0949V83.5129L257.648 84.1399C252.478 84.598 249.167 86.8648 249.167 91.0607C249.167 95.8835 252.908 98.1824 257.425 98.1824C261.512 98.1824 263.585 96.7195 264.857 95.0395V97.5554H270.199V83.0869C270.304 81.2566 269.717 79.4522 268.548 78.0149C266.896 76.0857 263.899 75.1212 260.241 75.1212C254.336 75.1212 250.934 77.6773 250.249 81.6159L255.748 81.5918ZM258.25 94.1392C256.013 94.1392 254.46 93.0862 254.46 90.9963C254.46 89.1074 255.839 88.0142 257.821 87.8535L264.84 87.2185V88.0625C264.84 92.0735 261.909 94.1392 258.25 94.1392ZM291.025 97.4911H296.368V68.1763H291.025V78.4489C289.737 76.56 287.449 75.097 284.006 75.097C277.334 75.097 273.585 80.3379 273.585 86.6236C273.585 92.9094 277.334 98.1583 284.006 98.1583C287.449 98.1583 289.737 96.6953 291.025 94.8064V97.4911ZM291.24 86.5915C291.24 90.9963 288.655 93.9302 285.088 93.9302C281.248 93.9302 278.928 91.2053 278.928 86.5915C278.928 81.9776 281.248 79.2527 285.088 79.2527C288.655 79.2849 291.24 82.2188 291.24 86.6236V86.5915ZM301.281 72.758H306.624V68.1763H301.281V72.758ZM301.281 97.4911H306.624V75.724H301.281V97.4911ZM326.822 97.4911H332.164V75.724H326.822V87.7088C326.822 91.7278 324.534 93.7856 321.306 93.7856C318.077 93.7856 316.657 92.1056 316.657 88.9627V75.724H311.314V89.3887C311.314 95.0154 314.617 98.1904 320.018 98.1904C323.032 98.1904 325.525 97.1455 326.822 95.0475V97.4911ZM346.202 89.0994C348.68 89.3887 350.331 89.6861 350.331 91.6957C350.331 93.3033 348.87 94.4206 345.773 94.4206C342.842 94.4206 341.165 93.456 341.074 91.2053H335.649C335.823 95.3128 339.613 98.1181 345.773 98.1181C351.933 98.1181 355.682 95.3932 355.682 91.2053C355.682 86.0449 351.595 84.582 347.069 84.0756L345.567 83.9068C342.982 83.6174 341.438 82.902 341.438 81.1819C341.438 79.9681 342.553 78.7704 345.699 78.7704C348.498 78.7704 349.828 79.9842 349.877 81.5757H355.261C355.005 78.3605 351.958 75.081 345.79 75.081C339.803 75.081 336.095 77.6773 336.095 81.6642C336.095 86.3584 339.968 88.3679 344.708 88.8984L346.202 89.0994Z" fill="black"/>
<line x1="381.869" y1="68.1765" x2="397.906" y2="84.2132" stroke="black" stroke-width="0.72034"/>
<path d="M381.869 68.1763L396.543 82.8497" stroke="#CF4326" stroke-width="0.72034"/>
<line x1="396.543" y1="82.8493" x2="411.216" y2="97.5228" stroke="black" stroke-width="0.72034"/>
<line x1="411.216" y1="68.6853" x2="381.869" y2="98.0322" stroke="black" stroke-width="0.72034"/>
<path d="M444.193 85.8644L454.058 96.3165H462.344L452.085 85.8644C457.649 85.7036 461.358 82.2464 461.358 77.0204C461.358 71.7943 457.609 68.1763 451.69 68.1763H436.894V96.3165H443.207V85.8644H444.193ZM443.207 80.6384V73.6033H451.69C453.466 73.6033 455.044 74.6083 455.044 77.1008C455.044 79.6334 453.466 80.6384 451.69 80.6384H443.207Z" fill="#CF4326"/>
<path d="M471.283 81.2414C471.48 80.0756 472.427 79.2314 474.716 79.2314C477.596 79.2314 478.306 80.4374 478.306 82.4474V82.6484L472.032 83.2514C467.297 83.6936 464.141 85.8644 464.141 89.8845C464.141 94.5075 467.495 96.9196 471.638 96.9196C475.189 96.9196 477.123 95.7135 478.306 94.1055V96.3165H484.304V82.4474C484.304 76.8194 479.924 74.8093 474.716 74.8093C469.389 74.8093 465.838 77.1008 465.127 81.2414H471.283ZM473.019 92.4975C471.164 92.4975 470.138 91.4925 470.138 89.8845C470.138 88.4775 470.849 87.4725 472.703 87.2715L478.306 86.6685V87.2715C478.306 90.6885 476.018 92.4975 473.019 92.4975Z" fill="#CF4326"/>
<path d="M495.267 75.4123H489.269V96.3165H495.267V85.2614C495.267 81.8444 497.2 79.8344 500.081 79.8344C502.764 79.8344 503.908 81.4424 503.908 84.0554V96.3165H509.906V83.6534C509.906 78.0254 506.67 74.8093 501.462 74.8093C498.779 74.8093 496.648 75.8143 495.267 77.6234V75.4123Z" fill="#CF4326"/>
<path d="M519.722 85.2614C519.722 81.4424 522.01 79.4324 524.496 79.4324C527.258 79.4324 529.468 81.6434 529.468 85.2614C529.468 88.8795 527.258 91.0905 524.496 91.0905C522.01 91.0905 519.722 89.0805 519.722 85.2614ZM529.271 93.7035C529.271 97.9246 527.021 99.7336 524.693 99.7336C523.549 99.7336 521.852 99.5326 521.221 97.7236H515.105C515.894 101.744 519.682 104.156 524.693 104.156C530.494 104.156 535.268 100.337 535.268 93.7035V75.4123H529.271V77.4224C528.481 76.4174 526.627 74.8093 523.312 74.8093C517.552 74.8093 513.724 79.4324 513.724 85.2614C513.724 91.0905 517.591 95.7135 523.312 95.7135C526.627 95.7135 528.521 94.1055 529.271 93.1005V93.7035Z" fill="#CF4326"/>
<path d="M540.427 96.3165H546.425V68.1763H540.427V96.3165Z" fill="#CF4326"/>
<path d="M564.95 90.0855C564.674 91.2915 563.412 92.4975 561.439 92.4975C558.716 92.4975 556.861 90.4875 556.664 87.8745H571.816V86.8695C571.816 85.1006 571.619 83.3318 571.145 81.8042C569.843 77.6234 566.45 74.8093 561.241 74.8093C554.652 74.8093 550.469 79.6334 550.469 85.8644C550.469 92.0955 554.652 96.9196 561.439 96.9196C566.844 96.9196 570.238 93.9045 571.422 90.0855H564.95ZM561.241 79.2314C563.767 79.2314 565.424 80.8394 565.621 83.6534H556.664C557.059 80.8394 558.716 79.2314 561.241 79.2314Z" fill="#CF4326"/>
</svg>
