<svg width="392" height="280" viewBox="0 0 392 280" fill="none" xmlns="http://www.w3.org/2000/svg">
<g clip-path="url(#clip0_400_4781)">
<rect width="390.709" height="279" transform="translate(0.918945 0.166016)" fill="#D44527"/>
<path d="M139.597 141.593V141.593C132.866 141.593 127.41 147.049 127.41 153.78V218.591C127.41 225.628 121.706 231.332 114.669 231.332V231.332C107.633 231.332 101.928 225.628 101.928 218.591V-23.4824" stroke="black" stroke-width="2"/>
<path d="M139.597 141.494V141.494C132.866 141.494 127.41 146.95 127.41 153.681V171.604C127.41 181.451 119.427 189.434 109.579 189.434V189.434C99.7317 189.434 91.7486 181.451 91.7486 171.604L91.7486 -23.4824" stroke="black" stroke-width="2"/>
<path d="M139.602 141.494H136.41C121.646 141.494 109.676 153.463 109.675 168.227L109.672 223.255C109.672 232.876 101.872 240.675 92.2515 240.675V240.675C82.6301 240.675 74.8305 232.875 74.8307 223.254L74.836 -23.4824" stroke="black" stroke-width="2"/>
<path d="M139.599 141.494V141.494C127.804 141.494 118.243 151.055 118.243 162.85L118.241 230.313C118.241 247.569 104.252 261.558 86.9952 261.558V261.558C69.7382 261.558 55.7488 247.569 55.7489 230.312L55.7511 -23.4824" stroke="black" stroke-width="2"/>
<rect x="137.838" y="124.465" width="116.872" height="34.4014" rx="17.2007" fill="white"/>
<path d="M234.128 146.734L229.739 139.132L238.517 139.132L234.128 146.734Z" fill="#D44527"/>
</g>
<defs>
<clipPath id="clip0_400_4781">
<rect width="390.709" height="279" fill="white" transform="translate(0.918945 0.166016)"/>
</clipPath>
</defs>
</svg>
